<?xml version="1.0" encoding="UTF-8" standalone="no"?>
<svg
   enable-background="new 0 0 24 24"
   height="48px"
   viewBox="0 0 24 24"
   width="48px"
   fill="#fff"
   version="1.1"
   id="svg3"
   sodipodi:docname="icon.svg"
   inkscape:version="1.4.1 (93de688d07, 2025-03-30)"
   xmlns:inkscape="http://www.inkscape.org/namespaces/inkscape"
   xmlns:sodipodi="http://sodipodi.sourceforge.net/DTD/sodipodi-0.dtd"
   xmlns="http://www.w3.org/2000/svg"
   xmlns:svg="http://www.w3.org/2000/svg">
  <defs
     id="defs3" />
  <sodipodi:namedview
     id="namedview3"
     pagecolor="#ffffff"
     bordercolor="#000000"
     borderopacity="0.25"
     inkscape:showpageshadow="2"
     inkscape:pageopacity="0.0"
     inkscape:pagecheckerboard="0"
     inkscape:deskcolor="#d1d1d1"
     inkscape:zoom="8.6875"
     inkscape:cx="23.942446"
     inkscape:cy="23.942446"
     inkscape:window-width="1280"
     inkscape:window-height="1403"
     inkscape:window-x="20"
     inkscape:window-y="20"
     inkscape:window-maximized="0"
     inkscape:current-layer="svg3" />
  <rect
     fill="none"
     height="24"
     width="24"
     id="rect1" />
  <path
     d="M 22,11 V 3 H 15 V 6 H 9 V 3 H 2 v 8 H 9 V 8 h 2 v 10 h 4 v 3 h 7 v -8 h -7 v 3 H 13 V 8 h 2 v 3 z M 7,9 H 4 V 5 h 3 z m 10,6 h 3 v 4 H 17 Z M 17,5 h 3 v 4 h -3 z"
     id="path1" />
  <polyline
     opacity="0.3"
     points="7,5 7,9 4,9 4,5 7,5"
     id="polyline1"
     style="fill:#4051b5;fill-opacity:1;opacity:1" />
  <polyline
     opacity="0.3"
     points="20,5 20,9 17,9 17,5 20,5"
     id="polyline2"
     style="fill:#4051b5;fill-opacity:1;opacity:1" />
  <polyline
     opacity="0.3"
     points="20,15 20,19 17,19 17,15 20,15"
     id="polyline3"
     style="fill:#4051b5;fill-opacity:1;opacity:1" />
</svg>
